<svg xmlns="http://www.w3.org/2000/svg" width="80.196" height="25.781" viewBox="0 0 80.196 25.781"><path d="M-36.582,6.152q-3.516,0-3.516-3.516V.293h3.516V2.637h2.344q0-2.344-2.93-8.789t-2.93-9.961q0-3.516,3.516-3.516h2.344q3.516,0,3.516,3.516v2.344h-3.516v-2.344h-2.344q0,2.344,2.93,8.789t2.93,9.961q0,3.516-3.516,3.516ZM-25.8-13.77V6.152h-3.516V-19.629H-25.8l2.344,4.688v-4.687h3.516V6.152h-3.516V-9.082Zm14.3-5.859v3.516h-3.516v4.688h3.516V-7.91h-3.516V2.637h3.516V6.152h-7.031V-19.629ZM-6.4,3.809l-.164,2.344h-3.516l2.344-25.781H-3.05L-.706,6.152H-4.222l-.164-2.344ZM-4.62.293l-.773-11.719L-6.167.293ZM4.222-6.551v12.7H.706V-19.629H4.222V-7.113L6.565-19.629h3.516L7.737-6.738,10.081,6.152H6.565Zm14.3-13.078v3.516H15.008v4.688h3.516V-7.91H15.008V2.637h3.516V6.152H11.493V-19.629Zm4.927,3.516V-5.566H25.8V-16.113Zm0,14.063v8.2H19.936V-19.629H25.8q3.516.211,3.516,3.516V-5.566q0,3-2.273,3.422l2.273,8.3H25.8Zm10.787,8.2q-3.516,0-3.516-3.516V.293h3.516V2.637h2.344q0-2.344-2.93-8.789t-2.93-9.961q0-3.516,3.516-3.516h2.344q3.516,0,3.516,3.516v2.344H36.582v-2.344H34.238q0,2.344,2.93,8.789T40.1,2.637q0,3.516-3.516,3.516Z" transform="translate(40.098 19.629)"></path></svg>